<svg fill="none" height="30" width="30" xmlns="http://www.w3.org/2000/svg" xmlns:xlink="http://www.w3.org/1999/xlink"><linearGradient id="a" gradientUnits="userSpaceOnUse" x1="20.296" x2=".514" y1="15.698" y2="35.48"><stop offset="0" stop-color="#ae93f9"/><stop offset="1" stop-color="#ae93f9" stop-opacity=".16"/></linearGradient><mask id="b" fill="#fff"><path clip-rule="evenodd" d="m9.802 18.802-3.375-3.375a.798.798 0 0 1 0-1.125l3.375-3.375 3.937 3.937zm5.062-2.813 3.938 3.938-3.375 3.375a.798.798 0 0 1 -1.125 0l-3.375-3.375zm-3.938-6.188 3.376-3.375a.798.798 0 0 1 1.125 0l3.375 3.375-3.938 3.938zm12.376 5.626-3.375 3.375-3.938-3.938 3.938-3.938 3.375 3.376c.309.309.309.815 0 1.125z" fill="#fff" fill-rule="evenodd"/></mask><rect fill="url(#a)" height="21.213" opacity=".25" rx="2" transform="matrix(.70710678 -.70710678 .70710678 .70710678 -10.606602 4.393398)" width="21.213" y="15"/><path d="m9.802 18.802-.708.707.708.707.707-.707zm0-7.875.707-.708-.707-.707-.708.707zm3.937 3.937.707.707.707-.707-.707-.707zm1.125 1.125.707-.707-.388-.388-.536.119zm0 0-.217-.976-.284.063-.206.206zm3.938 3.938.707.707.707-.707-.707-.708-.707.707zm-3.375 3.375.707.707zm-1.125 0 .707-.708-.707.707zm-3.375-3.375-.708-.708-.707.707.707.708zm3.375-13.5.707.707-.707-.708zm-3.375 3.373-.708-.707-.707.707.707.708zm7.875 0 .707.708.707-.708-.707-.707zm-3.938 3.938-.707.707.707.707.707-.707zm5.063 5.063-.708.707.707.707.708-.707zm-3.938-3.938-.707-.707-.707.707.707.707zm3.938-3.938.707-.707-.707-.707-.708.707.707.708zm-14.208 5.21 3.375 3.375 1.415-1.415-3.375-3.375zm0-2.54c-.7.7-.7 1.84 0 2.54l1.415-1.415a.202.202 0 0 1 0 .29zm3.375-3.375-3.374 3.374 1.415 1.415 3.375-3.375-1.415-1.415zm5.352 3.938-3.937-3.938-1.415 1.415 3.938 3.937zm-3.937 5.352 3.937-3.938-1.414-1.414-3.938 3.937zm4.138-4.496.434 1.952zm4.862 4.206-3.938-3.937-1.414 1.414 3.937 3.938zm-3.375 4.79 3.375-3.375-1.415-1.415-3.375 3.375zm-2.54 0c.7.7 1.84.7 2.54 0l-1.415-1.415a.202.202 0 0 1 .29 0zm-3.375-3.375 3.375 3.375 1.415-1.415-3.375-3.375zm3.938-5.352-3.938 3.937 1.415 1.415 3.937-3.938zm-.563-9.563-3.374 3.374 1.415 1.415 3.375-3.375-1.415-1.415zm2.54 0c-.7-.7-1.84-.7-2.54 0l1.415 1.415a.202.202 0 0 1 -.29 0zm3.375 3.375-3.375-3.375-1.415 1.415 3.375 3.375zm-3.938 5.352 3.938-3.937-1.415-1.415-3.937 3.938zm-5.351-3.937 3.938 3.937 1.414-1.414-3.937-3.938zm10.415 9 3.375-3.375-1.415-1.415-3.375 3.375zm-5.352-3.938 3.937 3.938 1.415-1.415-3.938-3.937zm3.937-5.352-3.937 3.938 1.414 1.414 3.938-3.937zm4.79 3.375-3.375-3.375-1.415 1.415 3.375 3.375zm0 2.54c.7-.7.7-1.84 0-2.54l-1.415 1.415a.202.202 0 0 1 0-.29z" fill="#ae93f9" mask="url(#b)"/></svg>