<svg width="158" height="160" fill="none" xmlns="http://www.w3.org/2000/svg"><path d="M147.962 97.96a69.875 69.875 0 1 1-120.03-64.157 69.876 69.876 0 0 1 120.03 27.988" stroke="url(#paint0_linear)" stroke-width="19.965"/><path d="M114.904 89.103a35.65 35.65 0 0 1-61.24 14.279 35.651 35.651 0 1 1 61.24-32.733" stroke="url(#paint1_angular)" stroke-opacity=".5" stroke-width="15.686" filter="url(#filter0_f)"/><path d="M114.904 89.103a35.65 35.65 0 0 1-61.24 14.279 35.651 35.651 0 1 1 61.24-32.733" stroke="url(#paint2_angular)" stroke-width="15.686"/><circle cx="80.467" cy="79.876" r="19.965" fill="url(#paint3_linear)" opacity=".75" filter="url(#filter1_f)"/><circle cx="80.468" cy="79.876" r="12.834" fill="#fff" filter="url(#filter2_d)"/><defs><filter id="filter0_f" x="22.713" y="22.121" width="114.027" height="115.509" filterUnits="userSpaceOnUse" color-interpolation-filters="sRGB"><feFlood flood-opacity="0" result="BackgroundImageFix"/><feBlend in="SourceGraphic" in2="BackgroundImageFix" result="shape"/><feGaussianBlur stdDeviation="7.13" result="effect1_foregroundBlur"/></filter><filter id="filter1_f" x="43.391" y="42.799" width="74.154" height="74.154" filterUnits="userSpaceOnUse" color-interpolation-filters="sRGB"><feFlood flood-opacity="0" result="BackgroundImageFix"/><feBlend in="SourceGraphic" in2="BackgroundImageFix" result="shape"/><feGaussianBlur stdDeviation="8.556" result="effect1_foregroundBlur"/></filter><filter id="filter2_d" x="61.929" y="61.337" width="37.077" height="37.077" filterUnits="userSpaceOnUse" color-interpolation-filters="sRGB"><feFlood flood-opacity="0" result="BackgroundImageFix"/><feColorMatrix in="SourceAlpha" values="0 0 0 0 0 0 0 0 0 0 0 0 0 0 0 0 0 0 127 0"/><feOffset/><feGaussianBlur stdDeviation="2.852"/><feColorMatrix values="0 0 0 0 1 0 0 0 0 1 0 0 0 0 1 0 0 0 1 0"/><feBlend mode="overlay" in2="BackgroundImageFix" result="effect1_dropShadow"/><feBlend in="SourceGraphic" in2="effect1_dropShadow" result="shape"/></filter><linearGradient id="paint0_linear" x1="80.468" y1=".018" x2="80.468" y2="162.586" gradientUnits="userSpaceOnUse"><stop stop-color="#445159"/><stop offset="1" stop-color="#445159" stop-opacity=".6"/></linearGradient><radialGradient id="paint1_angular" cx="0" cy="0" r="1" gradientUnits="userSpaceOnUse" gradientTransform="rotate(90 .296 80.172) scale(33.5118)"><stop offset=".537" stop-color="#EF2C2C"/><stop offset=".712" stop-color="#EF2C2C"/><stop offset=".784" stop-color="#266AED"/><stop offset=".948" stop-color="#266AED"/></radialGradient><radialGradient id="paint2_angular" cx="0" cy="0" r="1" gradientUnits="userSpaceOnUse" gradientTransform="rotate(90 .296 80.172) scale(33.5118)"><stop offset=".249" stop-color="#9341E5"/><stop offset=".537" stop-color="#EF2C2C"/><stop offset=".712" stop-color="#EF2C2C"/><stop offset=".784" stop-color="#266AED"/><stop offset=".948" stop-color="#266AED"/></radialGradient><linearGradient id="paint3_linear" x1="80.467" y1="59.911" x2="80.467" y2="99.84" gradientUnits="userSpaceOnUse"><stop offset=".072" stop-color="#FF2929"/><stop offset=".906" stop-color="#3278FF"/></linearGradient></defs></svg>