<svg clip-rule="evenodd" fill-rule="evenodd" viewBox="0 0 14 15" xmlns="http://www.w3.org/2000/svg" xmlns:xlink="http://www.w3.org/1999/xlink"><linearGradient id="a" gradientTransform="matrix(0 162.568 -162.568 0 80.468 .018)" gradientUnits="userSpaceOnUse" x1="0" x2="1" y1="0" y2="0"><stop offset="0" stop-color="#445159"/><stop offset="1" stop-color="#445159" stop-opacity=".6"/></linearGradient><radialGradient id="b" cx="0" cy="0" gradientTransform="matrix(0 33.5118 -33.5118 0 80.468 79.876)" gradientUnits="userSpaceOnUse" r="1"><stop offset="0" stop-color="#ef2c2c" stop-opacity=".5"/><stop offset=".54" stop-color="#ef2c2c" stop-opacity=".5"/><stop offset=".71" stop-color="#ef2c2c" stop-opacity=".5"/><stop offset=".78" stop-color="#266aed" stop-opacity=".5"/><stop offset=".95" stop-color="#266aed" stop-opacity=".5"/><stop offset="1" stop-color="#266aed" stop-opacity=".5"/></radialGradient><radialGradient id="c" cx="0" cy="0" gradientTransform="matrix(0 33.5118 -33.5118 0 80.468 79.876)" gradientUnits="userSpaceOnUse" r="1"><stop offset="0" stop-color="#9341e5"/><stop offset=".25" stop-color="#9341e5"/><stop offset=".54" stop-color="#ef2c2c"/><stop offset=".71" stop-color="#ef2c2c"/><stop offset=".78" stop-color="#266aed"/><stop offset=".95" stop-color="#266aed"/><stop offset="1" stop-color="#266aed"/></radialGradient><linearGradient id="d" gradientTransform="matrix(0 39.929 -39.929 0 80.467 59.911)" gradientUnits="userSpaceOnUse" x1="0" x2="1" y1="0" y2="0"><stop offset="0" stop-color="#ff2929" stop-opacity=".75"/><stop offset=".07" stop-color="#ff2929" stop-opacity=".75"/><stop offset=".91" stop-color="#3278ff" stop-opacity=".75"/><stop offset="1" stop-color="#3278ff" stop-opacity=".75"/></linearGradient><g fill="none"><path d="m147.962 97.96c-8.161 30.452-35.967 51.788-67.493 51.788-38.333 0-69.875-31.543-69.875-69.875 0-16.947 6.165-33.328 17.338-46.07 13.261-15.12 32.424-23.803 52.535-23.803 31.528 0 59.335 21.338 67.495 51.791" stroke="url(#a)" stroke-width="19.97" transform="scale(.09375)"/><path d="m114.904 89.103c-4.163 15.538-18.35 26.425-34.436 26.425-10.261 0-20.039-4.431-26.804-12.146-5.701-6.501-8.847-14.86-8.847-23.507 0-19.557 16.093-35.651 35.651-35.651 16.085 0 30.273 10.887 34.436 26.425" stroke="url(#b)" stroke-width="15.69" transform="scale(.09375)"/><path d="m114.904 89.103c-4.163 15.538-18.35 26.425-34.436 26.425-10.261 0-20.039-4.431-26.804-12.146-5.701-6.501-8.847-14.86-8.847-23.507 0-19.557 16.093-35.651 35.651-35.651 16.085 0 30.273 10.887 34.436 26.425" stroke="url(#c)" stroke-width="15.69" transform="scale(.09375)"/></g><circle cx="80.467" cy="79.876" fill="url(#d)" r="19.965" transform="scale(.09375)"/><circle cx="7.543875" cy="7.488375" fill="#fff" r="1.2031875" stroke-width=".09375"/></svg>